<svg id="eJ0NmkvM85b1" xmlns="http://www.w3.org/2000/svg" xmlns:xlink="http://www.w3.org/1999/xlink" viewBox="0 0 300 300" shape-rendering="geometricPrecision" text-rendering="geometricPrecision" project-id="7f75e6e5340649b8bbcd3b4865dfa6ce" export-id="ca9a7ea4434348e6ad8c6df4bdfc25d3" cached="false">
<style><![CDATA[
#eJ0NmkvM85b3 {animation: eJ0NmkvM85b3__m 2000ms linear 1 normal forwards}@keyframes eJ0NmkvM85b3__m { 0% {d: path('M15,150C15,217.5,69.281783,285,150,285C231.258776,285,285,217.5,285,150')} 39.5% {d: path('M15,150C15,83.061676,69.281783,15,150,15C231.258776,15,285,82.5,285,150')} 100% {d: path('M15,150C15,83.061676,69.281783,15,150,15C231.258776,15,285,82.5,285,150')}} #eJ0NmkvM85b4 {animation: eJ0NmkvM85b4_s_do 2000ms linear 1 normal forwards}@keyframes eJ0NmkvM85b4_s_do { 0% {stroke-dashoffset: 424.01} 4.5% {stroke-dashoffset: 424.01} 24% {stroke-dashoffset: 0} 100% {stroke-dashoffset: 0}} #eJ0NmkvM85b5 {animation: eJ0NmkvM85b5_s_do 2000ms linear 1 normal forwards}@keyframes eJ0NmkvM85b5_s_do { 0% {stroke-dashoffset: 424.01} 4.5% {stroke-dashoffset: 424.01} 24% {stroke-dashoffset: 0} 100% {stroke-dashoffset: 0}} #eJ0NmkvM85b7 {animation: eJ0NmkvM85b7_s_do 2000ms linear 1 normal forwards}@keyframes eJ0NmkvM85b7_s_do { 0% {stroke-dashoffset: 424.01} 4.5% {stroke-dashoffset: 424.01;animation-timing-function: cubic-bezier(0.055,0.45,0.93,0.41)} 39.5% {stroke-dashoffset: 0} 100% {stroke-dashoffset: 0}} #eJ0NmkvM85b8 {animation: eJ0NmkvM85b8_s_do 2000ms linear 1 normal forwards}@keyframes eJ0NmkvM85b8_s_do { 0% {stroke-dashoffset: 424.01} 4.5% {stroke-dashoffset: 424.01;animation-timing-function: cubic-bezier(0.055,0.45,0.93,0.41)} 40% {stroke-dashoffset: 0} 100% {stroke-dashoffset: 0}} #eJ0NmkvM85b16_tr {animation: eJ0NmkvM85b16_tr__tr 2000ms linear 1 normal forwards}@keyframes eJ0NmkvM85b16_tr__tr { 0% {transform: translate(135.33781px,207.03926px) rotate(720deg);animation-timing-function: cubic-bezier(0.415,0.08,0.115,0.955)} 100% {transform: translate(135.33781px,207.03926px) rotate(532.987013deg)}} #eJ0NmkvM85b16 {animation: eJ0NmkvM85b16_f_p 2000ms linear 1 normal forwards}@keyframes eJ0NmkvM85b16_f_p { 0% {fill: #d2dbed} 100% {fill: #d2dbed}} #eJ0NmkvM85b17_tr {animation: eJ0NmkvM85b17_tr__tr 2000ms linear 1 normal forwards}@keyframes eJ0NmkvM85b17_tr__tr { 0% {transform: translate(11.12px,29.9px) rotate(-720deg);animation-timing-function: cubic-bezier(0.415,0.08,0.115,0.955)} 100% {transform: translate(11.12px,29.9px) rotate(-532.987013deg)}}
]]></style>
<defs>
    <linearGradient id="eJ0NmkvM85b10-fill" x1="0.5" y1="0" x2="0.5" y2="1" spreadMethod="pad" gradientUnits="objectBoundingBox" gradientTransform="translate(0 0)">
        <stop id="eJ0NmkvM85b10-fill-0" offset="0%" stop-color="rgba(255,255,255,0)"/>
        <stop id="eJ0NmkvM85b10-fill-1" offset="100%" stop-color="#010022"/>
    </linearGradient>
</defs>

<path d="M15,150c0,67.5,54.281783,135,135,135c81.258776,0,135-67.5,135-135" fill="none" stroke="#C8CAD7" stroke-width="20"/>
<path id="eJ0NmkvM85b3" d="M15,150c0,67.5,54.281783,135,135,135c81.258776,0,135-67.5,135-135" fill="none" stroke="#C8CAD7" stroke-width="20" stroke-linecap="round"/>
<path id="eJ0NmkvM85b4" d="M15,150c0,67.5,54.281783,135,135,135c81.258776,0,135-67.5,135-135" transform="matrix(-.184972-.320381 0.320381-.184972 130.057876 287.528056)" fill="none" stroke="#C8CAD7" stroke-width="54" stroke-linecap="round" stroke-dashoffset="424.01" stroke-dasharray="424.01"/>
<path id="eJ0NmkvM85b5" d="M15,150c0,67.5,54.281783,135,135,135c81.258776,0,135-67.5,135-135" transform="matrix(.184972-.32038-.320381-.184972 170.680553 287.527809)" fill="none" stroke="#C8CAD7" stroke-width="54" stroke-linecap="round" stroke-dashoffset="424.01" stroke-dasharray="424.01"/>
<path d="M15,150c0,67.5,54.281783,135,135,135c81.258776,0,135-67.5,135-135" transform="matrix(.273616-.751754-.751754-.273616 1154.741983 307.295038)" fill="none" stroke="#000" stroke-width="20" stroke-linecap="round" stroke-dashoffset="424.01" stroke-dasharray="424.01"/>
<path id="eJ0NmkvM85b7" d="M15,150c0,67.5,54.281783,135,135,135c81.258776,0,135-67.5,135-135" transform="matrix(.179961-.779496-.779496-.179961 240.299492 294.103139)" fill="none" stroke="#C8CAD7" stroke-width="22.22" stroke-linecap="round" stroke-dashoffset="424.01" stroke-dasharray="424.01"/>
<path id="eJ0NmkvM85b8" d="M15,150c0,67.5,54.281783,135,135,135c81.258776,0,135-67.5,135-135" transform="matrix(-.179961-.779496 0.779496-.179961 60.43893 294.103139)" fill="none" stroke="#C8CAD7" stroke-width="22.22" stroke-linecap="round" stroke-dashoffset="424.01" stroke-dasharray="424.01"/>
<path d="" fill="none" stroke="#C8CAD7" stroke-width="0.6"/>
<g transform="matrix(.857143 0 0 0.857143 154.285714 240)"></g>

</svg>   